<svg xmlns="http://www.w3.org/2000/svg" width="1024" height="768" viewBox="0 0 1024 768"><defs><linearGradient id="sky" x1="0" y1="0" x2="0" y2="1"><stop offset="0" stop-color="#241d10"/><stop offset="1" stop-color="#5c4a22"/></linearGradient><radialGradient id="vig" cx="50%" cy="46%" r="75%"><stop offset="55%" stop-color="black" stop-opacity="0"/><stop offset="100%" stop-color="black" stop-opacity="0.45"/></radialGradient></defs><rect width="1024" height="768" fill="url(#sky)"/><circle cx="705" cy="141" r="2" fill="#C9A227" opacity="0.7"/><circle cx="82" cy="100" r="1" fill="#C9A227" opacity="0.7"/><circle cx="144" cy="132" r="1" fill="#C9A227" opacity="0.7"/><circle cx="407" cy="183" r="1.5" fill="#C9A227" opacity="0.7"/><circle cx="677" cy="251" r="2" fill="#C9A227" opacity="0.7"/><circle cx="85" cy="246" r="2" fill="#C9A227" opacity="0.7"/><circle cx="881" cy="293" r="1" fill="#C9A227" opacity="0.7"/><circle cx="957" cy="123" r="1" fill="#C9A227" opacity="0.7"/><circle cx="89" cy="112" r="2" fill="#C9A227" opacity="0.7"/><circle cx="61" cy="274" r="2" fill="#C9A227" opacity="0.7"/><circle cx="211" cy="262" r="2" fill="#C9A227" opacity="0.7"/><circle cx="87" cy="187" r="1" fill="#C9A227" opacity="0.7"/><circle cx="866" cy="36" r="1.5" fill="#C9A227" opacity="0.7"/><circle cx="458" cy="10" r="2" fill="#C9A227" opacity="0.7"/><circle cx="524" cy="252" r="1" fill="#C9A227" opacity="0.7"/><circle cx="950" cy="72" r="1" fill="#C9A227" opacity="0.7"/><circle cx="786" cy="18" r="2" fill="#C9A227" opacity="0.7"/><circle cx="446" cy="244" r="2" fill="#C9A227" opacity="0.7"/><circle cx="471" cy="282" r="1" fill="#C9A227" opacity="0.7"/><circle cx="691" cy="173" r="2" fill="#C9A227" opacity="0.7"/><circle cx="999" cy="209" r="2" fill="#C9A227" opacity="0.7"/><circle cx="660" cy="229" r="1.5" fill="#C9A227" opacity="0.7"/><circle cx="994" cy="199" r="2" fill="#C9A227" opacity="0.7"/><circle cx="131" cy="99" r="1" fill="#C9A227" opacity="0.7"/><circle cx="135" cy="262" r="1" fill="#C9A227" opacity="0.7"/><circle cx="831" cy="154" r="2" fill="#C9A227" opacity="0.7"/><circle cx="1014" cy="54" r="2" fill="#C9A227" opacity="0.7"/><circle cx="1009" cy="67" r="1" fill="#C9A227" opacity="0.7"/><circle cx="869" cy="28" r="1.5" fill="#C9A227" opacity="0.7"/><circle cx="136" cy="23" r="1" fill="#C9A227" opacity="0.7"/><circle cx="516" cy="215" r="2" fill="#C9A227" opacity="0.7"/><circle cx="407" cy="266" r="1" fill="#C9A227" opacity="0.7"/><circle cx="816" cy="140" r="1" fill="#C9A227" opacity="0.7"/><circle cx="203" cy="12" r="1.5" fill="#C9A227" opacity="0.7"/><circle cx="570" cy="70" r="1" fill="#C9A227" opacity="0.7"/><circle cx="810" cy="265" r="2" fill="#C9A227" opacity="0.7"/><circle cx="428" cy="221" r="1.5" fill="#C9A227" opacity="0.7"/><circle cx="427" cy="234" r="2" fill="#C9A227" opacity="0.7"/><circle cx="122" cy="127" r="1.5" fill="#C9A227" opacity="0.7"/><circle cx="230" cy="239" r="1" fill="#C9A227" opacity="0.7"/><rect x="0" y="470" width="1024" height="298" fill="#171208"/><rect x="90" y="120" width="34" height="360" fill="#0f0c06"/><rect x="260" y="120" width="34" height="360" fill="#0f0c06"/><rect x="730" y="120" width="34" height="360" fill="#0f0c06"/><rect x="900" y="120" width="34" height="360" fill="#0f0c06"/><rect x="382" y="180" width="260" height="300" rx="18" fill="#241a0c" stroke="#C9A227" stroke-width="5"/><rect x="442" y="120" width="140" height="90" rx="10" fill="none" stroke="#C9A227" stroke-width="5"/><path d="M512,120 L512,60 M470,84 L554,84" stroke="#C9A227" stroke-width="7"/><ellipse cx="512" cy="560" rx="330" ry="40" fill="#C9A227" opacity="0.15"/><path d="M192,224 q-160,-20 -640,-280" stroke="#C9A227" stroke-width="5" fill="none" opacity="0.75"/><path d="M832,224 q160,-20 640,-280" stroke="#C9A227" stroke-width="5" fill="none" opacity="0.75"/><path d="M192,554 q-160,145 -640,380" stroke="#C9A227" stroke-width="5" fill="none" opacity="0.75"/><path d="M832,554 q160,145 640,380" stroke="#C9A227" stroke-width="5" fill="none" opacity="0.75"/><path d="M512,124 q0,-70 0,-480" stroke="#C9A227" stroke-width="5" fill="none" opacity="0.75"/><path d="M512,654 q0,195 0,580" stroke="#C9A227" stroke-width="5" fill="none" opacity="0.75"/><circle cx="512" cy="384" r="196" fill="#5c4a22" opacity="0.88" stroke="#C9A227" stroke-width="4" stroke-dasharray="14 10"/><circle cx="512" cy="384" r="150" fill="#5c4a22" stroke="#C9A227" stroke-width="6"/><g transform="translate(512,384)" fill="#C9A227" stroke="#C9A227"><path d="M-34,20 L-40,-18 L-16,2 L0,-26 L16,2 L40,-18 L34,20 Z" /></g><rect width="1024" height="768" fill="url(#vig)"/><rect x="14" y="14" width="996" height="740" fill="none" stroke="#C9A227" stroke-width="3" opacity="0.5"/><text x="512" y="64" text-anchor="middle" font-family="Georgia,serif" font-size="38" fill="#C9A227">The Vow That Bent the World</text><text x="512" y="726" text-anchor="middle" font-family="Georgia,serif" font-size="19" fill="#C9A227" opacity="0.75">adi-04-bhishma-vow · portal r=0.5 · keyframe v1</text></svg>