<svg xmlns="http://www.w3.org/2000/svg" width="1024" height="768" viewBox="0 0 1024 768"><defs><linearGradient id="sky" x1="0" y1="0" x2="0" y2="1"><stop offset="0" stop-color="#1a0d0d"/><stop offset="1" stop-color="#6e2a12"/></linearGradient><radialGradient id="vig" cx="50%" cy="46%" r="75%"><stop offset="55%" stop-color="black" stop-opacity="0"/><stop offset="100%" stop-color="black" stop-opacity="0.45"/></radialGradient></defs><rect width="1024" height="768" fill="url(#sky)"/><circle cx="192" cy="81" r="2" fill="#C9A227" opacity="0.7"/><circle cx="831" cy="48" r="1" fill="#C9A227" opacity="0.7"/><circle cx="688" cy="74" r="1.5" fill="#C9A227" opacity="0.7"/><circle cx="599" cy="190" r="1.5" fill="#C9A227" opacity="0.7"/><circle cx="432" cy="182" r="1" fill="#C9A227" opacity="0.7"/><circle cx="309" cy="189" r="1" fill="#C9A227" opacity="0.7"/><circle cx="444" cy="131" r="2" fill="#C9A227" opacity="0.7"/><circle cx="649" cy="197" r="1.5" fill="#C9A227" opacity="0.7"/><circle cx="558" cy="25" r="1.5" fill="#C9A227" opacity="0.7"/><circle cx="392" cy="3" r="1" fill="#C9A227" opacity="0.7"/><circle cx="567" cy="241" r="2" fill="#C9A227" opacity="0.7"/><circle cx="783" cy="295" r="1" fill="#C9A227" opacity="0.7"/><circle cx="626" cy="259" r="2" fill="#C9A227" opacity="0.7"/><circle cx="742" cy="102" r="1.5" fill="#C9A227" opacity="0.7"/><circle cx="879" cy="69" r="2" fill="#C9A227" opacity="0.7"/><circle cx="852" cy="174" r="1" fill="#C9A227" opacity="0.7"/><circle cx="754" cy="179" r="2" fill="#C9A227" opacity="0.7"/><circle cx="903" cy="94" r="1" fill="#C9A227" opacity="0.7"/><circle cx="1000" cy="134" r="1.5" fill="#C9A227" opacity="0.7"/><circle cx="764" cy="72" r="1.5" fill="#C9A227" opacity="0.7"/><circle cx="19" cy="135" r="1.5" fill="#C9A227" opacity="0.7"/><circle cx="156" cy="107" r="1" fill="#C9A227" opacity="0.7"/><circle cx="183" cy="204" r="2" fill="#C9A227" opacity="0.7"/><circle cx="964" cy="53" r="1.5" fill="#C9A227" opacity="0.7"/><circle cx="469" cy="145" r="1.5" fill="#C9A227" opacity="0.7"/><circle cx="194" cy="151" r="2" fill="#C9A227" opacity="0.7"/><circle cx="873" cy="19" r="1" fill="#C9A227" opacity="0.7"/><circle cx="519" cy="262" r="1" fill="#C9A227" opacity="0.7"/><circle cx="364" cy="221" r="1" fill="#C9A227" opacity="0.7"/><circle cx="703" cy="67" r="2" fill="#C9A227" opacity="0.7"/><circle cx="294" cy="116" r="1" fill="#C9A227" opacity="0.7"/><circle cx="892" cy="56" r="1" fill="#C9A227" opacity="0.7"/><circle cx="61" cy="127" r="2" fill="#C9A227" opacity="0.7"/><circle cx="659" cy="260" r="1" fill="#C9A227" opacity="0.7"/><circle cx="548" cy="215" r="1" fill="#C9A227" opacity="0.7"/><circle cx="266" cy="161" r="2" fill="#C9A227" opacity="0.7"/><circle cx="135" cy="17" r="1" fill="#C9A227" opacity="0.7"/><circle cx="228" cy="299" r="2" fill="#C9A227" opacity="0.7"/><circle cx="146" cy="142" r="1" fill="#C9A227" opacity="0.7"/><circle cx="484" cy="121" r="1.5" fill="#C9A227" opacity="0.7"/><rect x="292" y="300" width="440" height="260" rx="10" fill="#3a1c0e" stroke="#C9A227" stroke-width="5"/><rect x="330" y="360" width="40" height="90" fill="#C9A227" opacity="0.8"/><rect x="400" y="360" width="40" height="90" fill="#C9A227" opacity="0.8"/><rect x="470" y="360" width="40" height="90" fill="#C9A227" opacity="0.8"/><rect x="540" y="360" width="40" height="90" fill="#C9A227" opacity="0.8"/><rect x="610" y="360" width="40" height="90" fill="#C9A227" opacity="0.8"/><path d="M262,300 L512,180 L762,300 Z" fill="#2a140a" stroke="#C9A227" stroke-width="5"/><path d="M561,320 C561,214.4 575,196.8 575,144 C575,196.8 589,214.4 589,320 Z" fill="#C9A227" opacity="0.9"/><path d="M363,320 C363,187.4 381,165.3 381,99 C381,165.3 399,187.4 399,320 Z" fill="#e07b2a" opacity="0.9"/><path d="M480,320 C480,200.60000000000002 499,180.70000000000002 499,121 C499,180.70000000000002 518,200.60000000000002 518,320 Z" fill="#f5e0a0" opacity="0.9"/><path d="M729,320 C729,235.4 741,221.3 741,179 C741,221.3 753,235.4 753,320 Z" fill="#f5e0a0" opacity="0.9"/><path d="M684,320 C684,194.0 703,173.0 703,110 C703,173.0 722,194.0 722,320 Z" fill="#f5e0a0" opacity="0.9"/><path d="M274,320 C274,240.8 290,227.60000000000002 290,188 C290,227.60000000000002 306,240.8 306,320 Z" fill="#f5e0a0" opacity="0.9"/><path d="M610,320 C610,214.4 619,196.8 619,144 C619,196.8 628,214.4 628,320 Z" fill="#C9A227" opacity="0.9"/><path d="M658,320 C658,210.2 673,191.9 673,137 C673,191.9 688,210.2 688,320 Z" fill="#C9A227" opacity="0.9"/><path d="M646,320 C646,170.6 665,145.70000000000002 665,71 C665,145.70000000000002 684,170.6 684,320 Z" fill="#e07b2a" opacity="0.9"/><path d="M644,320 C644,196.4 653,175.8 653,114 C653,175.8 662,196.4 662,320 Z" fill="#f5e0a0" opacity="0.9"/><path d="M293,320 C293,219.2 313,202.4 313,152 C313,202.4 333,219.2 333,320 Z" fill="#e07b2a" opacity="0.9"/><path d="M233,320 C233,189.20000000000002 244,167.4 244,102 C244,167.4 255,189.20000000000002 255,320 Z" fill="#C9A227" opacity="0.9"/><path d="M758,320 C758,236.0 771,222.0 771,180 C771,222.0 784,236.0 784,320 Z" fill="#e07b2a" opacity="0.9"/><path d="M191,320 C191,234.2 205,219.9 205,177 C205,219.9 219,234.2 219,320 Z" fill="#f5e0a0" opacity="0.9"/><path d="M606,320 C606,195.8 617,175.10000000000002 617,113 C617,175.10000000000002 628,195.8 628,320 Z" fill="#C9A227" opacity="0.9"/><path d="M450,320 C450,228.2 468,212.9 468,167 C468,212.9 486,228.2 486,320 Z" fill="#f5e0a0" opacity="0.9"/><path d="M302,320 C302,196.4 313,175.8 313,114 C313,175.8 324,196.4 324,320 Z" fill="#C9A227" opacity="0.9"/><path d="M339,320 C339,209.60000000000002 348,191.20000000000002 348,136 C348,191.20000000000002 357,209.60000000000002 357,320 Z" fill="#C9A227" opacity="0.9"/><path d="M419,320 C419,165.8 433,140.10000000000002 433,63 C433,140.10000000000002 447,165.8 447,320 Z" fill="#e07b2a" opacity="0.9"/><path d="M353,320 C353,222.8 374,206.60000000000002 374,158 C374,206.60000000000002 395,222.8 395,320 Z" fill="#C9A227" opacity="0.9"/><path d="M742,320 C742,188.6 758,166.70000000000002 758,101 C758,166.70000000000002 774,188.6 774,320 Z" fill="#C9A227" opacity="0.9"/><path d="M442,320 C442,164.6 454,138.70000000000002 454,61 C454,138.70000000000002 466,164.6 466,320 Z" fill="#f5e0a0" opacity="0.9"/><path d="M213,320 C213,205.4 228,186.3 228,129 C228,186.3 243,205.4 243,320 Z" fill="#e07b2a" opacity="0.9"/><path d="M318,320 C318,218.0 328,201.0 328,150 C328,201.0 338,218.0 338,320 Z" fill="#f5e0a0" opacity="0.9"/><path d="M657,320 C657,190.4 673,168.8 673,104 C673,168.8 689,190.4 689,320 Z" fill="#C9A227" opacity="0.9"/><path d="M305,320 C305,201.2 320,181.4 320,122 C320,181.4 335,201.2 335,320 Z" fill="#C9A227" opacity="0.9"/><path d="M750,320 C750,178.4 760,154.8 760,84 C760,154.8 770,178.4 770,320 Z" fill="#C9A227" opacity="0.9"/><path d="M734,320 C734,169.4 746,144.3 746,69 C746,144.3 758,169.4 758,320 Z" fill="#e07b2a" opacity="0.9"/><path d="M251,320 C251,231.8 266,217.10000000000002 266,173 C266,217.10000000000002 281,231.8 281,320 Z" fill="#f5e0a0" opacity="0.9"/><path d="M799,320 C799,179.6 808,156.20000000000002 808,86 C808,156.20000000000002 817,179.6 817,320 Z" fill="#e07b2a" opacity="0.9"/><path d="M264,320 C264,185.6 277,163.20000000000002 277,96 C277,163.20000000000002 290,185.6 290,320 Z" fill="#f5e0a0" opacity="0.9"/><path d="M492,320 C492,192.8 507,171.60000000000002 507,108 C507,171.60000000000002 522,192.8 522,320 Z" fill="#e07b2a" opacity="0.9"/><path d="M563,320 C563,222.8 582,206.60000000000002 582,158 C582,206.60000000000002 601,222.8 601,320 Z" fill="#C9A227" opacity="0.9"/><path d="M667,320 C667,171.8 682,147.10000000000002 682,73 C682,147.10000000000002 697,171.8 697,320 Z" fill="#e07b2a" opacity="0.9"/><rect x="452" y="560" width="120" height="60" fill="#0a0a0a"/><path d="M452,590 L360,660 L644,660 L572,590" fill="#0a0a0a" opacity="0.9"/><path d="M192,224 q-160,-20 -640,-280" stroke="#C9A227" stroke-width="5" fill="none" opacity="0.75"/><path d="M832,224 q160,-20 640,-280" stroke="#C9A227" stroke-width="5" fill="none" opacity="0.75"/><path d="M192,554 q-160,145 -640,380" stroke="#C9A227" stroke-width="5" fill="none" opacity="0.75"/><path d="M832,554 q160,145 640,380" stroke="#C9A227" stroke-width="5" fill="none" opacity="0.75"/><path d="M512,124 q0,-70 0,-480" stroke="#C9A227" stroke-width="5" fill="none" opacity="0.75"/><path d="M512,654 q0,195 0,580" stroke="#C9A227" stroke-width="5" fill="none" opacity="0.75"/><circle cx="512" cy="384" r="196" fill="#6e2a12" opacity="0.88" stroke="#C9A227" stroke-width="4" stroke-dasharray="14 10"/><circle cx="512" cy="384" r="150" fill="#6e2a12" stroke="#C9A227" stroke-width="6"/><g transform="translate(512,384)" fill="#C9A227" stroke="#C9A227"><ellipse cx="-20" cy="0" rx="16" ry="9" /><ellipse cx="20" cy="0" rx="16" ry="9" /></g><rect width="1024" height="768" fill="url(#vig)"/><rect x="14" y="14" width="996" height="740" fill="none" stroke="#C9A227" stroke-width="3" opacity="0.5"/><text x="512" y="64" text-anchor="middle" font-family="Georgia,serif" font-size="38" fill="#C9A227">The House That Burns</text><text x="512" y="726" text-anchor="middle" font-family="Georgia,serif" font-size="19" fill="#C9A227" opacity="0.75">adi-08-lakshagriha · portal r=0.5 · keyframe v1</text></svg>