<svg xmlns="http://www.w3.org/2000/svg" width="1024" height="768" viewBox="0 0 1024 768"><defs><linearGradient id="sky" x1="0" y1="0" x2="0" y2="1"><stop offset="0" stop-color="#0e2438"/><stop offset="1" stop-color="#7a5a1e"/></linearGradient><radialGradient id="vig" cx="50%" cy="46%" r="75%"><stop offset="55%" stop-color="black" stop-opacity="0"/><stop offset="100%" stop-color="black" stop-opacity="0.45"/></radialGradient></defs><rect width="1024" height="768" fill="url(#sky)"/><circle cx="333" cy="12" r="2" fill="#F5F0E1" opacity="0.7"/><circle cx="876" cy="264" r="1" fill="#F5F0E1" opacity="0.7"/><circle cx="704" cy="214" r="2" fill="#F5F0E1" opacity="0.7"/><circle cx="67" cy="3" r="2" fill="#F5F0E1" opacity="0.7"/><circle cx="397" cy="107" r="1.5" fill="#F5F0E1" opacity="0.7"/><circle cx="835" cy="19" r="1" fill="#F5F0E1" opacity="0.7"/><circle cx="407" cy="70" r="1" fill="#F5F0E1" opacity="0.7"/><circle cx="890" cy="253" r="2" fill="#F5F0E1" opacity="0.7"/><circle cx="897" cy="91" r="2" fill="#F5F0E1" opacity="0.7"/><circle cx="794" cy="122" r="2" fill="#F5F0E1" opacity="0.7"/><circle cx="353" cy="175" r="2" fill="#F5F0E1" opacity="0.7"/><circle cx="649" cy="109" r="1.5" fill="#F5F0E1" opacity="0.7"/><circle cx="454" cy="73" r="2" fill="#F5F0E1" opacity="0.7"/><circle cx="9" cy="294" r="1.5" fill="#F5F0E1" opacity="0.7"/><circle cx="764" cy="178" r="1" fill="#F5F0E1" opacity="0.7"/><circle cx="623" cy="262" r="1.5" fill="#F5F0E1" opacity="0.7"/><circle cx="698" cy="101" r="1" fill="#F5F0E1" opacity="0.7"/><circle cx="264" cy="282" r="1" fill="#F5F0E1" opacity="0.7"/><circle cx="605" cy="254" r="1" fill="#F5F0E1" opacity="0.7"/><circle cx="204" cy="157" r="1" fill="#F5F0E1" opacity="0.7"/><circle cx="1013" cy="247" r="2" fill="#F5F0E1" opacity="0.7"/><circle cx="997" cy="96" r="1.5" fill="#F5F0E1" opacity="0.7"/><circle cx="821" cy="153" r="1" fill="#F5F0E1" opacity="0.7"/><circle cx="300" cy="26" r="1.5" fill="#F5F0E1" opacity="0.7"/><circle cx="127" cy="108" r="1.5" fill="#F5F0E1" opacity="0.7"/><circle cx="209" cy="89" r="2" fill="#F5F0E1" opacity="0.7"/><circle cx="749" cy="74" r="1" fill="#F5F0E1" opacity="0.7"/><circle cx="461" cy="155" r="1" fill="#F5F0E1" opacity="0.7"/><circle cx="741" cy="231" r="1.5" fill="#F5F0E1" opacity="0.7"/><circle cx="89" cy="66" r="2" fill="#F5F0E1" opacity="0.7"/><circle cx="494" cy="170" r="2" fill="#F5F0E1" opacity="0.7"/><circle cx="708" cy="50" r="1.5" fill="#F5F0E1" opacity="0.7"/><circle cx="549" cy="44" r="1.5" fill="#F5F0E1" opacity="0.7"/><circle cx="788" cy="105" r="1" fill="#F5F0E1" opacity="0.7"/><circle cx="280" cy="93" r="1" fill="#F5F0E1" opacity="0.7"/><circle cx="241" cy="106" r="1" fill="#F5F0E1" opacity="0.7"/><circle cx="885" cy="213" r="1" fill="#F5F0E1" opacity="0.7"/><circle cx="750" cy="177" r="1.5" fill="#F5F0E1" opacity="0.7"/><circle cx="377" cy="146" r="1" fill="#F5F0E1" opacity="0.7"/><circle cx="675" cy="170" r="1" fill="#F5F0E1" opacity="0.7"/><path d="M651,620 C651,550.4 663,538.8 663,504 C663,538.8 675,550.4 675,620 Z" fill="#8B2E1F" opacity="0.9"/><path d="M511,620 C511,548.6 524,536.7 524,501 C524,536.7 537,548.6 537,620 Z" fill="#F5F0E1" opacity="0.9"/><path d="M862,620 C862,537.8 874,524.1 874,483 C874,524.1 886,537.8 886,620 Z" fill="#F5F0E1" opacity="0.9"/><path d="M736,620 C736,537.2 746,523.4 746,482 C746,523.4 756,537.2 756,620 Z" fill="#F5F0E1" opacity="0.9"/><path d="M282,620 C282,566.6 293,557.7 293,531 C293,557.7 304,566.6 304,620 Z" fill="#8B2E1F" opacity="0.9"/><path d="M89,620 C89,547.4 104,535.3 104,499 C104,535.3 119,547.4 119,620 Z" fill="#e07b2a" opacity="0.9"/><path d="M385,620 C385,567.2 402,558.4 402,532 C402,558.4 419,567.2 419,620 Z" fill="#F5F0E1" opacity="0.9"/><path d="M95,620 C95,540.2 114,526.9 114,487 C114,526.9 133,540.2 133,620 Z" fill="#F5F0E1" opacity="0.9"/><path d="M825,620 C825,560.0 838,550.0 838,520 C838,550.0 851,560.0 851,620 Z" fill="#8B2E1F" opacity="0.9"/><path d="M320,620 C320,561.8 339,552.1 339,523 C339,552.1 358,561.8 358,620 Z" fill="#F5F0E1" opacity="0.9"/><path d="M770,620 C770,538.4 786,524.8 786,484 C786,524.8 802,538.4 802,620 Z" fill="#e07b2a" opacity="0.9"/><path d="M608,620 C608,559.4 620,549.3 620,519 C620,549.3 632,559.4 632,620 Z" fill="#8B2E1F" opacity="0.9"/><path d="M671,620 C671,573.2 681,565.4 681,542 C681,565.4 691,573.2 691,620 Z" fill="#e07b2a" opacity="0.9"/><path d="M173,620 C173,557.0 182,546.5 182,515 C182,546.5 191,557.0 191,620 Z" fill="#8B2E1F" opacity="0.9"/><path d="M142,620 C142,549.8 158,538.1 158,503 C158,538.1 174,549.8 174,620 Z" fill="#F5F0E1" opacity="0.9"/><path d="M599,620 C599,539.6 618,526.2 618,486 C618,526.2 637,539.6 637,620 Z" fill="#F5F0E1" opacity="0.9"/><path d="M303,620 C303,567.8 320,559.1 320,533 C320,559.1 337,567.8 337,620 Z" fill="#8B2E1F" opacity="0.9"/><path d="M123,620 C123,567.2 140,558.4 140,532 C140,558.4 157,567.2 157,620 Z" fill="#F5F0E1" opacity="0.9"/><path d="M165,620 C165,549.8 179,538.1 179,503 C179,538.1 193,549.8 193,620 Z" fill="#e07b2a" opacity="0.9"/><path d="M85,620 C85,546.2 105,533.9 105,497 C105,533.9 125,546.2 125,620 Z" fill="#e07b2a" opacity="0.9"/><path d="M598,620 C598,575.0 607,567.5 607,545 C607,567.5 616,575.0 616,620 Z" fill="#e07b2a" opacity="0.9"/><path d="M899,620 C899,539.6 908,526.2 908,486 C908,526.2 917,539.6 917,620 Z" fill="#F5F0E1" opacity="0.9"/><path d="M809,620 C809,538.4 825,524.8 825,484 C825,524.8 841,538.4 841,620 Z" fill="#8B2E1F" opacity="0.9"/><path d="M848,620 C848,551.0 860,539.5 860,505 C860,539.5 872,551.0 872,620 Z" fill="#F5F0E1" opacity="0.9"/><rect x="0" y="560" width="1024" height="208" fill="#10181f"/><rect x="131" y="262" width="56" height="298" rx="6" fill="#e9e2cc"/><rect x="141" y="280" width="12" height="16" fill="#1c2f3a"/><rect x="141" y="310" width="12" height="16" fill="#1c2f3a"/><rect x="141" y="340" width="12" height="16" fill="#1c2f3a"/><rect x="141" y="370" width="12" height="16" fill="#1c2f3a"/><rect x="141" y="400" width="12" height="16" fill="#1c2f3a"/><rect x="141" y="430" width="12" height="16" fill="#1c2f3a"/><rect x="141" y="460" width="12" height="16" fill="#1c2f3a"/><rect x="141" y="490" width="12" height="16" fill="#1c2f3a"/><rect x="215" y="327" width="56" height="233" rx="6" fill="#e9e2cc"/><rect x="225" y="345" width="12" height="16" fill="#1c2f3a"/><rect x="225" y="375" width="12" height="16" fill="#1c2f3a"/><rect x="225" y="405" width="12" height="16" fill="#1c2f3a"/><rect x="225" y="435" width="12" height="16" fill="#1c2f3a"/><rect x="225" y="465" width="12" height="16" fill="#1c2f3a"/><rect x="225" y="495" width="12" height="16" fill="#1c2f3a"/><rect x="308" y="301" width="56" height="259" rx="6" fill="#e9e2cc"/><rect x="318" y="319" width="12" height="16" fill="#1c2f3a"/><rect x="318" y="349" width="12" height="16" fill="#1c2f3a"/><rect x="318" y="379" width="12" height="16" fill="#1c2f3a"/><rect x="318" y="409" width="12" height="16" fill="#1c2f3a"/><rect x="318" y="439" width="12" height="16" fill="#1c2f3a"/><rect x="318" y="469" width="12" height="16" fill="#1c2f3a"/><rect x="318" y="499" width="12" height="16" fill="#1c2f3a"/><rect x="399" y="343" width="56" height="217" rx="6" fill="#e9e2cc"/><rect x="409" y="361" width="12" height="16" fill="#1c2f3a"/><rect x="409" y="391" width="12" height="16" fill="#1c2f3a"/><rect x="409" y="421" width="12" height="16" fill="#1c2f3a"/><rect x="409" y="451" width="12" height="16" fill="#1c2f3a"/><rect x="409" y="481" width="12" height="16" fill="#1c2f3a"/><rect x="477" y="369" width="56" height="191" rx="6" fill="#e9e2cc"/><rect x="487" y="387" width="12" height="16" fill="#1c2f3a"/><rect x="487" y="417" width="12" height="16" fill="#1c2f3a"/><rect x="487" y="447" width="12" height="16" fill="#1c2f3a"/><rect x="487" y="477" width="12" height="16" fill="#1c2f3a"/><rect x="487" y="507" width="12" height="16" fill="#1c2f3a"/><rect x="577" y="260" width="56" height="300" rx="6" fill="#e9e2cc"/><rect x="587" y="278" width="12" height="16" fill="#1c2f3a"/><rect x="587" y="308" width="12" height="16" fill="#1c2f3a"/><rect x="587" y="338" width="12" height="16" fill="#1c2f3a"/><rect x="587" y="368" width="12" height="16" fill="#1c2f3a"/><rect x="587" y="398" width="12" height="16" fill="#1c2f3a"/><rect x="587" y="428" width="12" height="16" fill="#1c2f3a"/><rect x="587" y="458" width="12" height="16" fill="#1c2f3a"/><rect x="587" y="488" width="12" height="16" fill="#1c2f3a"/><rect x="662" y="279" width="56" height="281" rx="6" fill="#e9e2cc"/><rect x="672" y="297" width="12" height="16" fill="#1c2f3a"/><rect x="672" y="327" width="12" height="16" fill="#1c2f3a"/><rect x="672" y="357" width="12" height="16" fill="#1c2f3a"/><rect x="672" y="387" width="12" height="16" fill="#1c2f3a"/><rect x="672" y="417" width="12" height="16" fill="#1c2f3a"/><rect x="672" y="447" width="12" height="16" fill="#1c2f3a"/><rect x="672" y="477" width="12" height="16" fill="#1c2f3a"/><rect x="672" y="507" width="12" height="16" fill="#1c2f3a"/><rect x="754" y="253" width="56" height="307" rx="6" fill="#e9e2cc"/><rect x="764" y="271" width="12" height="16" fill="#1c2f3a"/><rect x="764" y="301" width="12" height="16" fill="#1c2f3a"/><rect x="764" y="331" width="12" height="16" fill="#1c2f3a"/><rect x="764" y="361" width="12" height="16" fill="#1c2f3a"/><rect x="764" y="391" width="12" height="16" fill="#1c2f3a"/><rect x="764" y="421" width="12" height="16" fill="#1c2f3a"/><rect x="764" y="451" width="12" height="16" fill="#1c2f3a"/><rect x="764" y="481" width="12" height="16" fill="#1c2f3a"/><rect x="831" y="415" width="56" height="145" rx="6" fill="#e9e2cc"/><rect x="841" y="433" width="12" height="16" fill="#1c2f3a"/><rect x="841" y="463" width="12" height="16" fill="#1c2f3a"/><rect x="841" y="493" width="12" height="16" fill="#1c2f3a"/><path d="M470,240 L512,120 L554,240 Z" fill="#F5F0E1"/><path d="M192,224 q-160,-20 -640,-280" stroke="#F5F0E1" stroke-width="5" fill="none" opacity="0.75"/><path d="M832,224 q160,-20 640,-280" stroke="#F5F0E1" stroke-width="5" fill="none" opacity="0.75"/><path d="M192,554 q-160,145 -640,380" stroke="#F5F0E1" stroke-width="5" fill="none" opacity="0.75"/><path d="M832,554 q160,145 640,380" stroke="#F5F0E1" stroke-width="5" fill="none" opacity="0.75"/><path d="M512,124 q0,-70 0,-480" stroke="#F5F0E1" stroke-width="5" fill="none" opacity="0.75"/><path d="M512,654 q0,195 0,580" stroke="#F5F0E1" stroke-width="5" fill="none" opacity="0.75"/><circle cx="512" cy="384" r="196" fill="#7a5a1e" opacity="0.88" stroke="#F5F0E1" stroke-width="4" stroke-dasharray="14 10"/><circle cx="512" cy="384" r="150" fill="#7a5a1e" stroke="#F5F0E1" stroke-width="6"/><g transform="translate(512,384)" fill="#F5F0E1" stroke="#F5F0E1"><path d="M0,-52 C22,-20 30,-8 18,18 C10,34 -10,34 -18,18 C-30,-8 -22,-20 0,-52 Z" /></g><rect width="1024" height="768" fill="url(#vig)"/><rect x="14" y="14" width="996" height="740" fill="none" stroke="#F5F0E1" stroke-width="3" opacity="0.5"/><text x="512" y="64" text-anchor="middle" font-family="Georgia,serif" font-size="38" fill="#F5F0E1">A City from Ashes</text><text x="512" y="726" text-anchor="middle" font-family="Georgia,serif" font-size="19" fill="#F5F0E1" opacity="0.75">adi-12-indraprastha · portal r=0.5 · keyframe v1</text></svg>